<svg xmlns="http://www.w3.org/2000/svg" width="600" height="300" viewBox="0 0 600 300"><g font-family="JetBrains Mono, ui-monospace, Menlo, Consolas, monospace"><title>Portfolio — Case studies, motion, and GitHub as a CMS.</title><rect x="1" y="1" width="598" height="298" rx="14" fill="#0a0a0a" stroke="#303030"/><path d="M15 1H585Q599 1 599 15V130H1V15Q1 1 15 1" fill="#141414"/><rect x="185.0" y="20" width="230" height="94" rx="5" fill="#0a0a0a" stroke="#303030"/><path d="M185.0 40H415.0" stroke="#303030"/><circle cx="197.0" cy="30" r="2" fill="#a3a3a3"/><circle cx="207.0" cy="30" r="2" fill="#a3a3a3"/><circle cx="217.0" cy="30" r="2" fill="#a3a3a3"/><path d="M206.0 61h82m-82 12h59m-59 22h186" stroke="#fafafa" stroke-opacity=".6" stroke-width="3"/><rect x="318.0" y="55" width="70" height="27" fill="#303030"/><text x="24" y="159" fill="#a3a3a3" font-size="11" letter-spacing="2">03 / NEXT.JS / GSAP</text><text x="24" y="195" fill="#fafafa" font-size="25" font-weight="600" letter-spacing="-1">Portfolio</text><text x="24" y="225" fill="#a3a3a3" font-size="14">Case studies, motion,</text><text x="24" y="247" fill="#a3a3a3" font-size="14">and GitHub as a CMS.</text><path d="M554 189l14-14m-14 0h14v14" stroke="#fafafa" stroke-width="1.5" fill="none"/></g></svg>
