<svg xmlns="http://www.w3.org/2000/svg" width="1200" height="420" viewBox="0 0 1200 420" role="img" aria-labelledby="title desc">
<title id="title">Alif Daniel — Full-stack developer</title>
<desc id="desc">A dark architectural grid with lime accents. Thoughtful interfaces. Dependable systems. Based in Malaysia.</desc>
<defs><pattern id="grid" width="40" height="40" patternUnits="userSpaceOnUse"><path d="M40 0H0V40" fill="none" stroke="#fff" stroke-opacity=".055"/></pattern></defs>
<rect width="1200" height="420" rx="20" fill="#101410"/>
<rect width="1200" height="420" rx="20" fill="url(#grid)"/>
<path d="M64 60H1136" stroke="#394235"/>
<circle cx="70" cy="36" r="4" fill="#c5f277"/>
<text x="86" y="41" fill="#c5f277" font-family="monospace" font-size="13" letter-spacing="2">ALXP-DANIEL</text>
<text x="1136" y="41" text-anchor="end" fill="#a3afa0" font-family="monospace" font-size="13" letter-spacing="2">MALAYSIA / MY</text>
<text x="64" y="124" fill="#a3afa0" font-family="monospace" font-size="15" letter-spacing="3">FULL-STACK DEVELOPER</text>
<text x="60" y="215" fill="#f0f4e9" font-family="Arial, Helvetica, sans-serif" font-size="82" font-weight="700" letter-spacing="-4">Alif Daniel<tspan fill="#c5f277">.</tspan></text>
<text x="64" y="263" fill="#c6cec0" font-family="Arial, Helvetica, sans-serif" font-size="23">Thoughtful interfaces. Dependable systems.</text>
<path d="M64 330H1136" stroke="#394235"/>
<text x="64" y="368" fill="#a3afa0" font-family="monospace" font-size="13" letter-spacing="1.5">WEB APPLICATIONS / BACKEND SERVICES / SELF-HOSTED INFRASTRUCTURE</text>
<g fill="none" stroke="#c5f277" stroke-width="2">
<rect x="880" y="115" width="184" height="152" rx="8" stroke-opacity=".25"/>
<rect x="920" y="145" width="184" height="152" rx="8" stroke-opacity=".45"/>
<rect x="960" y="175" width="120" height="92" rx="8" fill="#101410"/>
<path d="m992 208-13 13 13 13m56-26 13 13-13 13m-21-31-13 36"/>
</g></svg>
